<?xml version="1.0" encoding="UTF-8" standalone="no"?>
<!-- Created with Inkscape (http://www.inkscape.org/) -->

<svg
   version="1.1"
   id="svg1"
   width="6447.6533"
   height="1436.3733"
   viewBox="0 0 6447.6533 1436.3733"
   sodipodi:docname="3.svg"
   inkscape:export-filename="서울제일한방병원 로고_최종 - 복사본.ai.svg"
   inkscape:export-xdpi="96"
   inkscape:export-ydpi="96"
   inkscape:version="1.4 (86a8ad7, 2024-10-11)"
   xmlns:inkscape="http://www.inkscape.org/namespaces/inkscape"
   xmlns:sodipodi="http://sodipodi.sourceforge.net/DTD/sodipodi-0.dtd"
   xmlns="http://www.w3.org/2000/svg"
   xmlns:svg="http://www.w3.org/2000/svg">
  <defs
     id="defs1">
    <clipPath
       clipPathUnits="userSpaceOnUse"
       id="clipPath2">
      <path
         d="M 0,1077.279 H 4835.74 V 0 H 0 Z"
         transform="translate(-914.2672,-955.74312)"
         id="path2" />
    </clipPath>
    <clipPath
       clipPathUnits="userSpaceOnUse"
       id="clipPath4">
      <path
         d="M 0,1077.279 H 4835.74 V 0 H 0 Z"
         transform="translate(0,-2.5000001e-5)"
         id="path4" />
    </clipPath>
    <clipPath
       clipPathUnits="userSpaceOnUse"
       id="clipPath6">
      <path
         d="M 0,1077.279 H 4835.74 V 0 H 0 Z"
         transform="translate(0,-2.5000001e-5)"
         id="path6" />
    </clipPath>
    <clipPath
       clipPathUnits="userSpaceOnUse"
       id="clipPath8">
      <path
         d="M 0,1077.279 H 4835.74 V 0 H 0 Z"
         transform="translate(-525.23641,-404.24511)"
         id="path8" />
    </clipPath>
    <clipPath
       clipPathUnits="userSpaceOnUse"
       id="clipPath10">
      <path
         d="M 0,1077.279 H 4835.74 V 0 H 0 Z"
         transform="translate(-865.29602,-414.79191)"
         id="path10" />
    </clipPath>
    <clipPath
       clipPathUnits="userSpaceOnUse"
       id="clipPath12">
      <path
         d="M 0,1077.279 H 4835.74 V 0 H 0 Z"
         transform="translate(-908.3272,-487.41691)"
         id="path12" />
    </clipPath>
    <clipPath
       clipPathUnits="userSpaceOnUse"
       id="clipPath14">
      <path
         d="M 0,1077.279 H 4835.74 V 0 H 0 Z"
         transform="translate(-1470.4884,-826.91792)"
         id="path14" />
    </clipPath>
    <clipPath
       clipPathUnits="userSpaceOnUse"
       id="clipPath16">
      <path
         d="M 0,1077.279 H 4835.74 V 0 H 0 Z"
         transform="translate(-1642.0842,-782.75782)"
         id="path16" />
    </clipPath>
    <clipPath
       clipPathUnits="userSpaceOnUse"
       id="clipPath18">
      <path
         d="M 0,1077.279 H 4835.74 V 0 H 0 Z"
         transform="translate(0,-2.5000001e-5)"
         id="path18" />
    </clipPath>
    <clipPath
       clipPathUnits="userSpaceOnUse"
       id="clipPath20">
      <path
         d="M 0,1077.279 H 4835.74 V 0 H 0 Z"
         transform="translate(0,-2.5000001e-5)"
         id="path20" />
    </clipPath>
    <clipPath
       clipPathUnits="userSpaceOnUse"
       id="clipPath22">
      <path
         d="M 0,1077.279 H 4835.74 V 0 H 0 Z"
         transform="translate(-3302.6314,-714.59812)"
         id="path22" />
    </clipPath>
    <clipPath
       clipPathUnits="userSpaceOnUse"
       id="clipPath24">
      <path
         d="M 0,1077.279 H 4835.74 V 0 H 0 Z"
         transform="translate(-3749.9869,-740.51802)"
         id="path24" />
    </clipPath>
    <clipPath
       clipPathUnits="userSpaceOnUse"
       id="clipPath26">
      <path
         d="M 0,1077.279 H 4835.74 V 0 H 0 Z"
         transform="translate(-4107.5826,-657.47802)"
         id="path26" />
    </clipPath>
    <clipPath
       clipPathUnits="userSpaceOnUse"
       id="clipPath28">
      <path
         d="M 0,1077.279 H 4835.74 V 0 H 0 Z"
         transform="translate(-4554.4586,-569.63811)"
         id="path28" />
    </clipPath>
  </defs>
  <sodipodi:namedview
     id="namedview1"
     pagecolor="#ffffff"
     bordercolor="#000000"
     borderopacity="0.25"
     inkscape:showpageshadow="2"
     inkscape:pageopacity="0.0"
     inkscape:pagecheckerboard="0"
     inkscape:deskcolor="#d1d1d1"
     inkscape:zoom="0.17"
     inkscape:cx="3394.1176"
     inkscape:cy="426.47059"
     inkscape:window-width="1920"
     inkscape:window-height="1017"
     inkscape:window-x="-8"
     inkscape:window-y="-8"
     inkscape:window-maximized="1"
     inkscape:current-layer="layer-MC4">
    <inkscape:page
       x="0"
       y="0"
       inkscape:label="1"
       id="page1"
       width="6447.6533"
       height="1436.3733"
       margin="134.00934 286.35999 162.04933 136.69867"
       bleed="0" />
  </sodipodi:namedview>
  <g
     id="layer-MC0"
     inkscape:groupmode="layer"
     inkscape:label="레이어 2">
    <path
       id="path1"
       d="m 0,0 h 24.941 c 0.394,-0.101 1.399,-0.415 2.218,-1.365 0.581,-0.674 0.813,-1.373 0.911,-1.765 0.016,-18.67 0.033,-37.341 0.048,-56.011 18.552,0 37.103,-1 55.654,-1 0.468,-0.109 1.548,-0.425 2.496,-1.392 0.705,-0.72 1.03,-1.487 1.179,-1.928 V -87.97 c -0.188,-0.538 -0.534,-1.327 -1.179,-2.137 -0.676,-0.849 -1.406,-1.377 -1.901,-1.68 -18.733,0.005 -37.466,1.011 -56.199,1.016 -0.016,-18.337 -0.033,-36.674 -0.05,-55.011 -0.223,-0.593 -0.736,-1.704 -1.85,-2.672 -0.746,-0.648 -1.496,-1 -2.016,-1.194 H 0 c -0.4,0.113 -1.133,0.378 -1.832,1.016 -0.869,0.795 -1.191,1.715 -1.307,2.123 v 55.722 c -18.752,0 -37.505,-1 -56.257,-1 -0.448,0.135 -1.438,0.5 -2.316,1.442 -0.864,0.927 -1.161,1.921 -1.267,2.378 v 24.116 c 0.159,0.501 0.517,1.401 1.326,2.259 0.938,0.994 1.985,1.403 2.498,1.565 18.598,0 37.195,1 55.793,1 v 55.342 0.598 c 0.129,0.403 0.428,1.149 1.115,1.841 C -1.389,-0.38 -0.419,-0.097 0,0"
       style="fill:#fce029;fill-opacity:1;fill-rule:nonzero;stroke:none"
       transform="matrix(1.3333333,0,0,-1.3333333,1219.0229,162.0492)"
       clip-path="url(#clipPath2)" />
  </g>
  <g
     id="layer-MC1"
     inkscape:groupmode="layer"
     inkscape:label="레이어 5">
    <path
       id="path3"
       d="m 490.432,547.487 h -37.266 v 263.672 h 37.266 z m -68.555,0 h -37.266 v 263.672 h 37.266 z m -42.187,144.14 c 0,-7.031 -2.231,-12.892 -6.68,-17.578 -4.455,-4.691 -10.432,-7.031 -17.93,-7.031 -7.504,0 -13.48,2.34 -17.93,7.031 -4.455,4.686 -6.679,10.547 -6.679,17.578 0,7.032 2.224,12.887 6.679,17.579 4.45,4.685 10.426,7.031 17.93,7.031 7.498,0 13.475,-2.346 17.93,-7.031 4.449,-4.692 6.68,-10.547 6.68,-17.579 m -38.672,56.25 h -61.875 l 68.906,-140.625 -29.883,-21.093 -47.461,105.468 -47.461,-105.468 -29.883,26.093 68.555,135.625 h -61.523 v 35.157 h 140.625 z"
       style="fill:#ffffff;fill-opacity:1;fill-rule:nonzero;stroke:none"
       transform="matrix(1.3333333,0,0,-1.3333333,0,1436.3733)"
       clip-path="url(#clipPath4)" />
    <path
       id="path5"
       d="M 821.702,681.081 H 784.436 V 818.19 h 37.266 z m -238.008,64.335 c 0,-9.843 3.807,-17.462 11.426,-22.851 7.613,-5.395 18.106,-8.086 31.465,-8.086 13.359,0 23.846,2.691 31.465,8.086 7.613,5.389 11.426,13.008 11.426,22.851 0,9.844 -3.813,17.457 -11.426,22.852 -7.619,5.389 -18.106,8.086 -31.465,8.086 -13.359,0 -23.852,-2.697 -31.465,-8.086 -7.619,-5.395 -11.426,-13.008 -11.426,-22.852 M 784.437,615.69 v 15.117 H 554.515 v 32.695 H 821.702 V 586.159 H 591.78 V 569.635 H 821.702 V 536.94 H 554.515 v 78.75 z M 547.483,745.416 c 0,9.141 1.874,17.633 5.625,25.489 3.747,7.849 9.141,14.705 16.172,20.566 6.795,5.625 15.057,10.074 24.785,13.36 9.723,3.279 20.567,4.921 32.52,4.921 11.953,0 22.791,-1.642 32.52,-4.921 9.722,-3.286 18.105,-7.735 25.136,-13.36 6.795,-5.861 12.069,-12.717 15.821,-20.566 3.746,-7.856 5.625,-16.348 5.625,-25.489 0,-9.14 -1.879,-17.638 -5.625,-25.488 -3.752,-7.855 -9.026,-14.59 -15.821,-20.215 -7.031,-5.861 -15.414,-10.431 -25.136,-13.711 -9.729,-3.285 -20.567,-4.921 -32.52,-4.921 -11.953,0 -22.797,1.636 -32.52,4.921 -9.728,3.28 -17.99,7.85 -24.785,13.711 -7.031,5.625 -12.425,12.36 -16.172,20.215 -3.751,7.85 -5.625,16.348 -5.625,25.488"
       style="fill:#ffffff;fill-opacity:1;fill-rule:nonzero;stroke:none"
       transform="matrix(1.3333333,0,0,-1.3333333,0,1436.3733)"
       clip-path="url(#clipPath6)"
       inkscape:export-filename="path5.svg"
       inkscape:export-xdpi="96"
       inkscape:export-ydpi="96" />
    <path
       id="path7"
       d="m 0,0 c 0,-7.031 -2.346,-13.008 -7.031,-17.93 -4.692,-4.922 -10.783,-7.382 -18.281,-7.382 -7.504,0 -13.596,2.46 -18.282,7.382 -4.691,4.922 -7.031,10.899 -7.031,17.93 0,7.031 2.34,13.008 7.031,17.93 4.686,4.922 10.778,7.382 18.282,7.382 7.498,0 13.589,-2.46 18.281,-7.382 C -2.346,13.008 0,7.031 0,0 m -64.687,-93.867 h -37.266 V 88.945 h 37.266 z m -172.266,41.484 c 8.904,0 16.051,2.401 21.445,7.207 5.389,4.801 8.086,10.25 8.086,16.348 0,6.092 -2.697,11.426 -8.086,15.996 -5.394,4.57 -12.541,6.855 -21.445,6.855 -8.91,0 -16.057,-2.285 -21.445,-6.855 -5.395,-4.57 -8.086,-9.904 -8.086,-15.996 0,-6.098 2.691,-11.547 8.086,-16.348 5.388,-4.806 12.535,-7.207 21.445,-7.207 m -65.039,23.555 c 0,7.734 1.582,14.996 4.746,21.797 3.164,6.795 7.674,12.771 13.535,17.929 5.625,5.153 12.42,9.196 20.391,12.129 7.965,2.928 16.754,4.395 26.367,4.395 9.607,0 18.396,-1.467 26.367,-4.395 7.965,-2.933 14.881,-6.976 20.742,-12.129 5.625,-5.158 10.02,-11.134 13.184,-17.929 3.164,-6.801 4.746,-14.063 4.746,-21.797 0,-7.735 -1.582,-15.002 -4.746,-21.797 -3.164,-6.801 -7.559,-12.777 -13.184,-17.93 -5.861,-5.158 -12.777,-9.201 -20.742,-12.129 -7.971,-2.933 -16.76,-4.394 -26.367,-4.394 -9.613,0 -18.402,1.461 -26.367,4.394 -7.971,2.928 -14.766,6.971 -20.391,12.129 -5.861,5.153 -10.371,11.129 -13.535,17.93 -3.164,6.795 -4.746,14.062 -4.746,21.797 m -8.789,-152.93 v 84.375 h 37.265 v -49.922 h 229.922 v -34.453 z m 92.109,251.367 h 69.61 V 34.453 h -175.782 v 35.156 h 68.907 v 26.367 h 37.265 z"
       style="fill:#ffffff;fill-opacity:1;fill-rule:nonzero;stroke:none"
       transform="matrix(1.3333333,0,0,-1.3333333,700.3152,897.37987)"
       clip-path="url(#clipPath8)" />
    <path
       id="path9"
       d="m 0,0 c 0,-7.031 -2.346,-13.008 -7.031,-17.93 -4.692,-4.922 -10.783,-7.382 -18.281,-7.382 -7.504,0 -13.596,2.46 -18.282,7.382 -4.691,4.922 -7.031,10.899 -7.031,17.93 0,7.031 2.34,13.008 7.031,17.93 4.686,4.922 10.778,7.382 18.282,7.382 7.498,0 13.589,-2.46 18.281,-7.382 C -2.346,13.008 0,7.031 0,0 m -64.688,-93.867 h -37.266 V 78.398 h 37.266 z m -153.984,-50.977 c 0,-9.843 4.043,-17.578 12.129,-23.203 8.086,-5.625 17.869,-8.437 29.356,-8.437 11.48,0 21.269,2.812 29.355,8.437 8.086,5.625 12.129,13.36 12.129,23.203 0,9.844 -4.043,17.578 -12.129,23.203 -8.086,5.625 -17.875,8.438 -29.355,8.438 -11.487,0 -21.27,-2.813 -29.356,-8.438 -8.086,-5.625 -12.129,-13.359 -12.129,-23.203 m -35.859,0 c 0,9.608 2.049,18.397 6.152,26.367 4.098,7.965 9.668,14.881 16.699,20.743 7.032,5.625 15.233,10.019 24.61,13.183 9.371,3.164 19.336,4.746 29.883,4.746 10.546,0 20.505,-1.582 29.882,-4.746 9.371,-3.164 17.578,-7.558 24.61,-13.183 7.031,-5.862 12.595,-12.778 16.699,-20.743 4.098,-7.97 6.152,-16.759 6.152,-26.367 0,-9.613 -2.054,-18.402 -6.152,-26.367 -4.104,-7.965 -9.668,-14.881 -16.699,-20.742 -7.032,-5.625 -15.239,-5.02 -24.61,-8.184 -9.377,-3.164 -19.336,-4.746 -29.882,-4.746 -10.547,0 -20.512,1.582 -29.883,4.746 -9.377,3.164 -17.578,2.559 -24.61,8.184 -7.031,5.861 -12.601,12.777 -16.699,20.742 -4.103,7.965 -6.152,16.754 -6.152,26.367 m -26.016,117.071 h 81.914 V 3.164 h -81.914 z m -37.265,-34.454 V 64.336 h 37.265 V 37.617 h 81.914 v 26.719 h 37.266 V -62.227 Z"
       style="fill:#ffffff;fill-opacity:1;fill-rule:nonzero;stroke:none"
       transform="matrix(1.3333333,0,0,-1.3333333,1153.728,883.31747)"
       clip-path="url(#clipPath10)" />
  </g>
  <g
     id="layer-MC2"
     inkscape:groupmode="layer"
     inkscape:label="레이어 4">
    <path
       id="path11"
       d="m 0,0 h 33.208 c 1.282,-0.342 4.229,-1.312 6.847,-4.034 2.713,-2.822 3.542,-5.933 3.812,-7.228 V -351.13 c -0.37,-2.824 -1.211,-6.761 -3.275,-11.036 -2.404,-4.982 -5.354,-8.112 -8.175,-11.109 -3.901,-4.146 -9.142,-7.856 -9.142,-7.856 -0.361,-0.289 -4.057,-2.763 -6.12,-3.766 -3.734,-1.818 -10.114,-2.012 -10.114,-2.012 -6.979,-0.037 -331.238,0.944 -774.619,1 -3.386,0.224 -8.267,0.013 -13.43,2.64 -4.623,2.352 -7.45,5.148 -11.02,8.679 -3.538,3.499 -6.523,6.452 -9.049,11.288 0,0 -3.1,5.852 -3.905,13.321 -1.742,16.163 -0.201,690.216 0,775.927 0.329,3.929 1.357,9.332 4.359,14.97 2.556,4.801 5.515,7.843 7.426,9.775 5.63,5.692 11.174,8.43 12.308,8.976 l 10e-4,0.001 c 3.018,1.509 8.25,3.785 15.805,3.826 0.109,10e-4 0.196,10e-4 0.262,10e-4 0.064,-10e-4 0.108,-10e-4 0.109,-10e-4 0.159,0 135.028,0 344.602,0 1.409,-0.365 4.956,-1.49 7.813,-4.849 1.871,-2.2 2.682,-4.459 3.05,-5.816 v -30.91 c -0.368,-1.386 -1.234,-3.878 -3.356,-6.258 -2.963,-3.324 -6.551,-4.38 -7.957,-4.715 -179.899,0.693 -311.791,0.759 -320.665,0 -5.596,-0.478 -8.948,-3.433 -8.948,-3.433 -4.363,-3.801 -4.738,-8.95 -4.79,-9.905 v -717.024 c 0.058,-1.237 0.444,-6.528 4.79,-10.865 4.015,-4.006 8.803,-4.598 10.131,-4.717 238.189,0 476.378,-1 714.567,-1 1.44,0.159 5.753,0.825 9.552,4.381 4.235,3.964 4.986,8.854 5.147,10.2 v 309.791 c 0.283,1.373 1.177,4.77 4.173,7.758 C -4.098,-1.369 -1.355,-0.388 0,0"
       style="fill:#fce029;fill-opacity:1;fill-rule:nonzero;stroke:none"
       transform="matrix(1.3333333,0,0,-1.3333333,1211.1029,786.48413)"
       clip-path="url(#clipPath12)" />
  </g>
  <g
     id="layer-MC3"
     inkscape:groupmode="layer"
     inkscape:label="레이어 7">
    <path
       id="path13"
       d="m 0,0 v -410.92 h -47.52 v 217.96 h -105.6 v 44.64 h 105.6 l 0,148.32 z m -226.56,-164.64 128.16,-195.839 -39.84,-25.92 -102.24,161.279 c -14.085,-48.96 -33.285,-87.285 -57.6,-114.96 -24.322,-27.675 -52.485,-15.795 -84.48,-18.359 v 48.479 c 25.598,4.155 47.28,-5.88 65.04,23.88 17.76,29.76 31.2,68.558 40.32,116.4 9.12,47.835 13.838,101.04 14.16,159.6 l 48.48,-1.92 c 0,-54.405 -4.005,-105.285 -12,-152.64"
       style="fill:#ffffff;fill-opacity:1;fill-rule:nonzero;stroke:none"
       transform="matrix(1.3333333,0,0,-1.3333333,1960.6512,333.81613)"
       clip-path="url(#clipPath14)" />
    <path
       id="path15"
       d="m 0,0 c -24.48,-6.405 -36.72,-16.005 -36.72,-28.8 0,-12.803 12.158,-22.402 36.48,-28.8 24.315,-6.405 55.838,-9.6 94.56,-9.6 38.715,0 70.238,3.195 94.56,9.6 24.315,6.398 36.48,15.997 36.48,28.8 0,12.795 -12.24,22.395 -36.72,28.8 C 164.16,6.397 132.72,9.6 94.32,9.6 55.92,9.6 24.48,6.397 0,0 m -36,-85.68 c -33.12,12 -49.68,30.96 -49.68,56.88 0,25.598 16.56,44.4 49.68,56.4 33.12,12 76.56,18 130.32,18 53.76,0 97.2,-6 130.32,-18 33.12,-12 49.68,-30.802 49.68,-56.4 0,-25.92 -16.56,-44.88 -49.68,-56.88 -33.12,-12 -76.56,-18 -130.32,-18 -53.76,0 -97.2,6 -130.32,18 m 153.84,-76.08 v -36.96 h 153.12 v -97.92 H -35.28 v -28.799 h 313.44 v -36.521 h -360 v 98.92 H 224.4 v 28.8 H -82.8 v 35.52 H 70.8 v 36.96 h -180.96 v 36.96 h 409.44 v -36.96 z"
       style="fill:#ffffff;fill-opacity:1;fill-rule:nonzero;stroke:none"
       transform="matrix(1.3333333,0,0,-1.3333333,2189.4455,392.69627)"
       clip-path="url(#clipPath16)" />
    <path
       id="path17"
       d="m 2373.359,415.998 h -45.12 v 410.92 h 45.12 z m -151.2,408.52 h 45.12 v -400.32 h -45.12 v 202.08 h -64.8 v 44.64 h 64.8 z m -119.039,-179.52 99.839,-175.68 -38.879,-22.08 -72.96,132.48 c -20.161,-83.204 -56.325,-129.278 -108.481,-138.24 v 46.56 c 26.558,7.357 46.718,35.76 60.481,85.2 13.755,49.44 20.954,114.637 21.599,195.6 h -75.36 v 43.2 h 192.96 v -43.2 h -72 c -0.322,-46.08 -2.722,-87.36 -7.199,-123.84"
       style="fill:#ffffff;fill-opacity:1;fill-rule:nonzero;stroke:none"
       transform="matrix(1.3333333,0,0,-1.3333333,0,1436.3733)"
       clip-path="url(#clipPath18)" />
    <path
       id="path19"
       d="m 2761.675,826.918 h 47.52 v -200.64 h -47.52 z m -142.56,-141.36 c 14.715,10.395 22.08,24.24 22.08,41.52 0,17.28 -7.365,31.117 -22.08,41.52 -14.723,10.395 -33.923,15.6 -57.6,15.6 -23.685,0 -42.96,-5.205 -57.84,-15.6 -14.881,-10.403 -22.32,-24.24 -22.32,-41.52 0,-17.28 7.439,-31.125 22.32,-41.52 14.88,-10.403 34.155,-15.6 57.84,-15.6 23.677,0 42.877,5.197 57.6,15.6 m -152.16,-154.8 h 295.2 v 35.52 h -296.16 v 37.44 h 343.2 v -108.48 h -295.2 v -35.52 h 305.28 v -38.44 h -352.32 z m 28.32,113.04 c -19.2,8.16 -34.162,19.44 -44.88,33.84 -10.725,14.4 -16.08,30.878 -16.08,49.44 0,18.555 5.355,35.04 16.08,49.44 10.718,14.4 25.68,25.68 44.88,33.84 19.2,8.16 41.28,12.24 66.24,12.24 24.96,0 47.04,-4.08 66.239,-12.24 19.201,-8.16 34.08,-19.44 44.641,-33.84 10.56,-14.4 15.84,-30.885 15.84,-49.44 0,-18.562 -5.28,-35.04 -15.84,-49.44 -10.561,-14.4 -25.44,-25.68 -44.641,-33.84 -19.199,-8.16 -41.279,-12.24 -66.239,-12.24 -24.96,0 -47.04,4.08 -66.24,12.24"
       style="fill:#ffffff;fill-opacity:1;fill-rule:nonzero;stroke:none"
       transform="matrix(1.3333333,0,0,-1.3333333,0,1436.3733)"
       clip-path="url(#clipPath20)" />
    <path
       id="path21"
       d="m 0,0 v -45.6 h -57.6 v -149.28 h -47.52 v 307.2 H -57.6 V 0 Z m -345.6,-38.4 c -13.762,-8.963 -20.64,-20.325 -20.64,-34.08 0,-14.085 6.878,-25.522 20.64,-34.32 13.755,-8.805 31.995,-13.2 54.72,-13.2 22.718,0 40.957,4.395 54.72,13.2 13.755,8.798 20.639,20.235 20.639,34.32 0,13.755 -6.884,25.117 -20.639,34.08 -13.763,8.955 -32.002,13.44 -54.72,13.44 -22.725,0 -40.965,-4.485 -54.72,-13.44 m -6.72,-211.68 h 305.76 v -43.24 H -400.32 V -180 h 48 z m -0.72,103.44 c -18.405,6.555 -32.88,16.237 -43.44,29.04 -10.56,12.795 -15.84,27.84 -15.84,45.12 0,17.28 5.28,32.317 15.84,45.12 10.56,12.795 25.035,22.477 43.44,29.04 18.397,6.555 39.12,9.84 62.16,9.84 23.04,0 43.68,-3.285 61.92,-9.84 18.24,-6.563 32.64,-16.163 43.2,-28.8 10.56,-12.645 15.84,-27.765 15.84,-45.36 0,-17.603 -5.28,-32.723 -15.84,-45.36 -10.56,-12.645 -24.96,-22.245 -43.2,-28.8 -18.24,-6.563 -38.88,-9.84 -61.92,-9.84 -23.04,0 -43.763,3.277 -62.16,9.84 m 201.36,181.2 h -278.4 v 38.88 h 115.2 v 46.08 h 48 V 73.44 h 115.2 z"
       style="fill:#ffffff;fill-opacity:1;fill-rule:nonzero;stroke:none"
       transform="matrix(1.3333333,0,0,-1.3333333,4403.5084,483.57587)"
       clip-path="url(#clipPath22)" />
    <path
       id="path23"
       d="m 0,0 v -45.6 h -57.6 v -101.76 h -47.52 V 86.4 H -57.6 V 0 Z m -136.56,-273.84 c 23.198,7.2 34.8,17.836 34.8,31.92 0,14.077 -11.602,24.72 -34.8,31.92 -23.205,7.2 -53.363,10.8 -90.48,10.8 -36.803,0 -66.885,-3.6 -90.24,-10.8 -23.363,-7.2 -35.04,-17.843 -35.04,-31.92 0,-14.084 11.595,-24.72 34.799,-31.92 23.199,-7.2 53.356,-10.8 90.481,-10.8 37.117,0 67.275,3.6 90.48,10.8 m -84.72,255.12 H -367.679 V -84 H -221.28 Z M -99.6,-180.24 c 32.16,-13.282 48.24,-33.84 48.24,-61.68 0,-27.84 -16.08,-48.397 -48.24,-61.68 -32.16,-13.275 -74.64,-20.92 -127.44,-20.92 -52.8,0 -95.28,7.645 -127.44,20.92 -32.16,13.283 -48.24,33.84 -48.24,61.68 0,27.84 16.08,48.398 48.24,61.68 32.16,13.275 74.64,19.92 127.44,19.92 52.8,0 95.28,-6.645 127.44,-19.92 m -75.12,56.88 H -414.24 V 79.2 h 46.56 V 20.16 h 146.4 V 79.2 h 46.56 z"
       style="fill:#ffffff;fill-opacity:1;fill-rule:nonzero;stroke:none"
       transform="matrix(1.3333333,0,0,-1.3333333,4999.9824,449.016)"
       clip-path="url(#clipPath24)" />
    <path
       id="path25"
       d="M 0,0 H -67.2 V 40.8 H 0 v 50.88 h -67.2 v 40.8 H 0 v 36.96 H 47.04 V -64.32 l -47.04,0 z m -35.521,-190.8 c 23.356,7.2 35.041,17.836 35.041,31.92 0,14.077 -11.685,24.72 -35.041,31.92 -23.362,7.2 -53.759,10.8 -91.2,10.8 -37.439,0 -67.844,-3.6 -91.199,-10.8 -23.363,-7.2 -35.04,-17.843 -35.04,-31.92 0,-14.084 11.677,-24.72 35.04,-31.92 23.355,-7.2 53.76,-10.8 91.199,-10.8 37.441,0 67.838,3.6 91.2,10.8 M -134.4,65.28 H -275.52 V -0.96 H -134.4 Z M 1.92,-97.2 c 32.317,-13.282 48.479,-33.84 48.479,-61.68 0,-27.84 -16.162,-48.397 -48.479,-61.68 -32.325,-13.274 -75.203,-20.92 -128.641,-20.92 -53.444,0 -96.322,7.646 -128.639,20.92 -32.326,13.283 -48.48,33.84 -48.48,61.68 0,27.84 16.154,48.398 48.48,61.68 32.317,13.275 75.195,19.92 128.639,19.92 53.438,0 96.316,-6.645 128.641,-19.92 m -90.24,56.88 h -233.76 v 202.56 h 46.559 V 103.68 H -134.4 v 58.56 h 46.08 z"
       style="fill:#ffffff;fill-opacity:1;fill-rule:nonzero;stroke:none"
       transform="matrix(1.3333333,0,0,-1.3333333,5476.7767,559.736)"
       clip-path="url(#clipPath26)" />
    <path
       id="path27"
       d="M 0,0 V 257.28 H 47.521 V -63.84 H 0 V -38.4 H -124.319 V 0 Z m -246.72,208.08 c -13.762,-7.2 -20.639,-17.685 -20.639,-31.44 0,-13.763 6.877,-24.323 20.639,-31.68 13.755,-7.365 31.838,-11.04 54.241,-11.04 22.394,0 40.477,3.675 54.239,11.04 13.756,7.357 20.64,17.917 20.64,31.68 0,13.755 -6.884,24.24 -20.64,31.44 -13.762,7.2 -31.845,10.8 -54.239,10.8 -22.403,0 -40.486,-3.6 -54.241,-10.8 m 304.8,-315.12 v -41.32 h -358.559 v 125.32 h 47.519 v -84 z M -280.56,117.6 c -22.245,14.077 -33.36,33.757 -33.36,59.04 0,25.275 11.115,44.88 33.36,58.8 22.238,13.92 51.6,20.88 88.081,20.88 36.479,0 65.834,-6.96 88.08,-20.88 22.237,-13.92 33.359,-33.525 33.359,-58.8 0,-25.283 -11.122,-44.963 -33.359,-59.04 -22.246,-14.085 -51.601,-21.12 -88.08,-21.12 -36.481,0 -65.843,7.035 -88.081,21.12 m 55.44,-89.28 h -113.279 v 39.36 h 169.439 c 63.998,0 108.795,5.437 134.4,16.32 V 44.64 C -58.882,33.757 -104.16,28.32 -170.399,28.32 h -7.201 v -73.44 h -47.52 z"
       style="fill:#ffffff;fill-opacity:1;fill-rule:nonzero;stroke:none"
       transform="matrix(1.3333333,0,0,-1.3333333,6072.6113,676.85587)"
       clip-path="url(#clipPath28)" />
  </g>
  <g
     id="layer-MC4"
     inkscape:groupmode="layer"
     inkscape:label="레이어 8">
    <path
       d="m 53.34,-103.18 q 12.18,0 21.98,4.34 9.8,4.2 15.68,11.9 5.88,7.7 6.58,17.36 H 82.46 q -1.26,-9.24 -9.24,-15.12 -7.84,-5.88 -20.58,-5.88 -12.88,0 -20.3,4.9 -7.28,4.76 -7.28,12.46 0,5.74 3.5,9.66 3.5,3.78 10.78,6.58 7.42,2.8 20.02,5.46 20.3,4.34 29.4,12.46 9.24,7.98 9.24,20.72 0,9.8 -5.88,17.22 -5.88,7.28 -16.1,11.2 Q 65.8,14.14 53.34,14.14 40.32,14.14 29.96,9.66 19.74,5.18 13.58,-2.94 7.42,-11.06 6.72,-21.84 h 15.12 q 1.12,10.36 9.8,16.8 8.82,6.44 22.68,6.44 8.26,0 14.84,-2.38 6.58,-2.38 10.22,-6.72 3.64,-4.34 3.64,-9.8 0,-6.16 -3.5,-10.22 -3.5,-4.06 -10.92,-6.86 -7.28,-2.94 -20.16,-5.6 -19.6,-4.06 -28.98,-11.76 -9.24,-7.7 -9.24,-21.28 0,-9.1 5.46,-15.82 5.6,-6.86 15.4,-10.5 9.8,-3.64 22.26,-3.64 z m 142.93996,2.66 v 13.02 h -64.96 v 35.28 h 60.06 v 13.02 h -60.06 v 37.8 h 66.22 v 13.02 h -80.92 v -112.14 z m 72.73991,114.66 q -16.8,0 -30.38,-7.56 -13.44,-7.56 -21.14,-21 -7.7,-13.44 -7.7,-30.1 0,-16.66 7.56,-30.1 7.7,-13.44 21.14,-21 13.58,-7.56 30.38,-7.56 16.8,0 30.24,7.56 13.58,7.56 21.28,21 7.7,13.44 7.7,30.1 0,16.66 -7.7,30.1 -7.56,13.44 -21.14,21 -13.44,7.56 -30.24,7.56 z m 0,-13.44 q 12.6,0 22.68,-5.74 10.22,-5.88 15.96,-16.1 5.74,-10.36 5.74,-23.38 0,-13.02 -5.74,-23.24 -5.74,-10.36 -15.96,-16.1 -10.08,-5.88 -22.82,-5.88 -12.74,0 -22.82,5.88 -10.08,5.74 -15.82,16.1 -5.74,10.22 -5.74,23.24 0,13.02 5.74,23.38 5.74,10.22 15.96,16.1 10.22,5.74 22.82,5.74 z m 91.56001,-101.22 v 63.84 q 0,11.2 4.06,19.74 4.2,8.4 11.9,13.16 7.84,4.62 18.34,4.62 10.5,0 18.2,-4.62 7.7,-4.76 11.76,-13.16 4.2,-8.54 4.2,-19.74 v -63.84 h 14.7 v 63.84 q 0,15.26 -6.02,26.88 -6.02,11.48 -17.08,17.78 -11.06,6.3 -25.76,6.3 -14.7,0 -25.9,-6.3 -11.06,-6.3 -17.08,-17.78 -6.02,-11.62 -6.02,-26.88 v -63.84 z m 120.40011,98.84 h 61.6 v 13.3 h -76.3 v -112.14 h 14.7 z m 123.62014,-22.54 q 0.28,6.86 3.5,12.6 3.36,5.6 9.52,8.96 6.3,3.36 14.84,3.36 13.16,0 20.58,-7.7 7.56,-7.84 7.56,-20.72 v -72.8 h 14.84 v 72.8 q 0,12.46 -5.46,21.98 -5.32,9.52 -15.12,14.7 -9.66,5.18 -22.4,5.18 -12.46,0 -22.12,-5.04 -9.66,-5.04 -14.98,-13.72 -5.18,-8.68 -5.46,-19.6 z m 172.75984,-76.3 v 13.02 h -64.96 v 35.28 h 60.06 v 13.02 h -60.06 v 37.8 h 66.22 v 13.02 h -80.92 v -112.14 z m 34.85995,112.14 h -14.7 v -112.14 h 14.7 z m 38.78003,-13.3 h 61.6 v 13.3 h -76.3 v -112.14 h 14.7 z m 211.82015,-98.84 V 11.62 h -14.7 v -50.68 h -65.10001 v 50.68 h -14.7 v -112.14 h 14.7 v 48.02 h 65.10001 v -48.02 z m 78.4,114.66 q -16.8,0 -30.38,-7.56 -13.44,-7.56 -21.14,-21 -7.7,-13.44 -7.7,-30.1 0,-16.66 7.56,-30.1 7.7,-13.44 21.14,-21 13.58,-7.56 30.38,-7.56 16.8,0 30.24,7.56 13.58,7.56 21.28,21 7.7,13.44 7.7,30.1 0,16.66 -7.7,30.1 -7.56,13.44 -21.14,21 -13.44,7.56 -30.24,7.56 z m 0,-13.44 q 12.6,0 22.68,-5.74 10.22,-5.88 15.96,-16.1 5.74,-10.36 5.74,-23.38 0,-13.02 -5.74,-23.24 -5.74,-10.36 -15.96,-16.1 -10.08,-5.88 -22.82,-5.88 -12.74,0 -22.82,5.88 -10.08,5.74 -15.82,16.1 -5.74,10.22 -5.74,23.24 0,13.02 5.74,23.38 5.74,10.22 15.96,16.1 10.22,5.74 22.82,5.74 z m 119.7,-103.88 q 12.18,0 21.98,4.34 9.8,4.2 15.68,11.9 5.88,7.7 6.58,17.36 h -15.12 q -1.26,-9.24 -9.24,-15.12 -7.84,-5.88 -20.58,-5.88 -12.88,0 -20.3,4.9 -7.28,4.76 -7.28,12.46 0,5.74 3.5,9.66 3.5,3.78 10.78,6.58 7.42,2.8 20.02,5.46 20.3,4.34 29.4,12.46 9.24,7.98 9.24,20.72 0,9.8 -5.88,17.22 -5.88,7.28 -16.1,11.2 -10.22,4.06 -22.68,4.06 -13.02,0 -23.38,-4.48 -10.22,-4.48 -16.38,-12.6 -6.16,-8.12 -6.86,-18.9 h 15.12 q 1.12,10.36 9.8,16.8 8.82,6.44 22.68,6.44 8.26,0 14.84,-2.38 6.58,-2.38 10.22,-6.72 3.64,-4.34 3.64,-9.8 0,-6.16 -3.5,-10.22 -3.5,-4.06 -10.92,-6.86 -7.28,-2.94 -20.16,-5.6 -19.6,-4.06 -28.98,-11.76 -9.24,-7.7 -9.24,-21.28 0,-9.1 5.46,-15.82 5.6,-6.86 15.4,-10.5 9.8,-3.64 22.26,-3.64 z m 103.0399,2.66 q 14.28,0 24.64,4.9 10.5,4.76 15.96,13.58 5.6,8.82 5.6,20.44 0,11.62 -5.6,20.44 -5.46,8.82 -15.96,13.72 -10.36,4.76 -24.64,4.76 h -25.06 v 34.3 h -14.7 v -112.14 z m -1.12,64.54 q 15.4,0 23.94,-6.58 8.68,-6.72 8.68,-19.04 0,-12.32 -8.68,-18.9 -8.54,-6.72 -23.94,-6.72 h -23.94 v 51.24 z m 78.26,47.6 h -14.7 v -112.14 h 14.7 z m 72.38,-98.98 v 98.98 h -14.7 v -98.98 h -40.32 v -13.16 h 95.2 v 13.16 z m 109.8001,71.26 h -53.9 l -11.2,27.72 h -15.4 l 46.2,-112.14 h 15.54 l 46.06,112.14 h -16.1 z m -5.18,-13.02 -21.7,-54.18 -21.84,54.18 z m 62.16,27.44 h 61.6 v 13.3 h -76.3 v -112.14 h 14.7 z m 171.6402,15.82 q -16.8,0 -30.38,-7.56 -13.44,-7.56 -21.14,-21 -7.7,-13.44 -7.7,-30.1 0,-16.66 7.56,-30.1 7.7,-13.44 21.14,-21 13.58,-7.56 30.38,-7.56 16.8,0 30.24,7.56 13.58,7.56 21.28,21 7.7,13.44 7.7,30.1 0,16.66 -7.7,30.1 -7.56,13.44 -21.14,21 -13.44,7.56 -30.24,7.56 z m 0,-13.44 q 12.6,0 22.68,-5.74 10.22,-5.88 15.96,-16.1 5.74,-10.36 5.74,-23.38 0,-13.02 -5.74,-23.24 -5.74,-10.36 -15.96,-16.1 -10.08,-5.88 -22.82,-5.88 -12.74,0 -22.82,5.88 -10.08,5.74 -15.82,16.1 -5.74,10.22 -5.74,23.24 0,13.02 5.74,23.38 5.74,10.22 15.96,16.1 10.22,5.74 22.82,5.74 z m 156.8,-101.22 v 13.16 h -63.7 v 38.22 l 57.54,-0.14 v 13.16 h -57.54 v 47.74 h -14.7 v -112.14 z m 89.7402,62.16 -20.16,22.4 v 27.58 h -14.7 v -112.14 h 14.7 v 64.68 l 57.54,-64.68 h 18.34 l -46.2,51.52 49.42,60.62 h -18.76 z m 115.7701,52.5 q -16.8,0 -30.38,-7.56 -13.44,-7.56 -21.14,-21 -7.7,-13.44 -7.7,-30.1 0,-16.66 7.56,-30.1 7.7,-13.44 21.14,-21 13.58,-7.56 30.38,-7.56 16.8,0 30.24,7.56 13.58,7.56 21.28,21 7.7,13.44 7.7,30.1 0,16.66 -7.7,30.1 -7.56,13.44 -21.14,21 -13.44,7.56 -30.24,7.56 z m 0,-13.44 q 12.6,0 22.68,-5.74 10.22,-5.88 15.96,-16.1 5.74,-10.36 5.74,-23.38 0,-13.02 -5.74,-23.24 -5.74,-10.36 -15.96,-16.1 -10.08,-5.88 -22.82,-5.88 -12.74,0 -22.82,5.88 -10.08,5.74 -15.82,16.1 -5.74,10.22 -5.74,23.24 0,13.02 5.74,23.38 5.74,10.22 15.96,16.1 10.22,5.74 22.82,5.74 z m 152.18,10.92 -25.48,-39.9 q -4.2,0.28 -6.3,0.28 h -27.3 v 39.62 h -14.7 v -112.14 h 42 q 14,0 24.08,4.48 10.22,4.34 15.54,12.6 5.32,8.12 5.32,19.18 0,11.9 -6.16,20.44 -6.16,8.54 -17.78,12.6 l 28.14,42.84 z m -32.9,-52.78 q 14.84,0 23.1,-5.88 8.26,-6.02 8.26,-17.22 0,-11.2 -8.26,-17.08 -8.26,-6.02 -23.1,-6.02 h -26.18 v 46.2 z m 145.6,-59.36 v 13.02 h -64.96 v 35.28 h 60.06 v 13.02 h -60.06 v 37.8 h 66.22 v 13.02 h -80.92 v -112.14 z m 91.5598,84.42 h -53.9 l -11.2,27.72 h -15.4 l 46.2,-112.14 h 15.54 l 46.06,112.14 h -16.1 z m -5.18,-13.02 -21.7,-54.18 -21.84,54.18 z m 61.1802,-71.4 67.9,87.36 v -88.06 h 14.84 V 10.92 h -13.86 l -67.9,-87.36 v 88.06 h -14.7 v -112.14 z m 158.7601,0 43.26,76.16 43.26,-76.16 h 12.88 V 11.62 h -14.7 v -82.74 l -36.12,63.84 h -10.64 l -36.12,-63.84 v 82.74 h -14.7 v -112.14 z m 203,0 v 13.02 h -64.96 v 35.28 h 60.06 v 13.02 h -60.06 v 37.8 h 66.22 v 13.02 h -80.92 v -112.14 z m 59.9198,0 q 19.04,0 32.76,7 13.72,7 21,19.74 7.28,12.6 7.28,29.4 0,16.8 -7.28,29.4 -7.14,12.6 -21,19.6 -13.72,7 -32.76,7 h -39.76 v -112.14 z m 0.42,98.84 q 21.42,0 33.6,-11.2 12.18,-11.2 12.18,-31.5 0,-20.3 -12.18,-31.64 -12.18,-11.34 -33.6,-11.34 h -25.48 v 85.68 z m 94.6401,13.3 h -14.7 v -112.14 h 14.7 z m 77.9801,2.52 q -16.66,0 -30.1,-7.56 -13.44,-7.56 -21.14,-21 -7.56,-13.44 -7.56,-30.1 0,-16.66 7.56,-30.1 7.7,-13.44 21.14,-21 13.44,-7.56 30.1,-7.56 14.14,0 25.48,5.18 11.48,5.04 18.9,14.14 7.56,9.1 10.5,21 h -14.98 q -3.64,-12.18 -14.14,-19.46 -10.5,-7.28 -25.48,-7.28 -12.74,0 -22.82,5.88 -10.08,5.74 -15.82,15.96 -5.74,10.22 -5.74,23.24 0,12.88 5.74,23.24 5.74,10.22 15.82,16.1 10.22,5.74 22.82,5.74 10.22,0 18.76,-3.64 8.54,-3.78 14.14,-10.22 5.74,-6.44 7.84,-14.42 h 14.98 q -2.52,11.76 -10.22,21.28 -7.56,9.52 -19.46,14.98 -11.9,5.6 -26.32,5.6 z m 89.4601,-2.52 h -14.7 v -112.14 h 14.7 z m 37.8,-112.14 67.9,87.36 v -88.06 h 14.84 V 10.92 h -13.86 l -67.9,-87.36 v 88.06 h -14.7 v -112.14 z m 186.34,0 v 13.02 h -64.96 v 35.28 h 60.06 v 13.02 h -60.06 v 37.8 h 66.22 v 13.02 h -80.92 v -112.14 z"
       id="text28"
       style="font-weight:500;font-size:140px;font-family:'Gmarket Sans TTF';-inkscape-font-specification:'Gmarket Sans TTF, Medium';fill:#a87a51"
       transform="matrix(1.3333333,0,0,1.3333333,1450.5709,1171.1611)"
       aria-label="SEOUL JEIL HOSPITAL OF KOREAN MEDICINE" />
  </g>
</svg>
